<?xml version="1.0" standalone="no"?>
<!DOCTYPE svg PUBLIC "-//W3C//DTD SVG 20010904//EN"
 "http://www.w3.org/TR/2001/REC-SVG-20010904/DTD/svg10.dtd">
<svg version="1.0" xmlns="http://www.w3.org/2000/svg"
 width="100.000000pt" height="100.000000pt" viewBox="0 0 100.000000 100.000000"
 preserveAspectRatio="xMidYMid meet">

<g transform="translate(0.000000,100.000000) scale(0.100000,-0.100000)"
fill="#000000" stroke="none">
<path d="M284 963 c4 -24 1 -33 -12 -37 -9 -3 -22 -16 -27 -28 -6 -12 -21 -25
-35 -29 -14 -3 -24 -11 -22 -17 1 -7 -4 -12 -12 -12 -8 0 -22 -7 -30 -16 -13
-13 -16 -41 -15 -162 0 -82 4 -138 8 -127 4 11 6 40 3 64 -3 29 -1 42 6 38 13
-9 13 -71 0 -115 -8 -26 -5 -48 12 -103 12 -39 23 -69 26 -67 2 3 -5 35 -17
72 -11 38 -19 70 -17 72 2 2 12 -22 22 -54 20 -62 51 -128 72 -153 16 -18 18
-29 5 -29 -6 0 -20 18 -32 40 -12 22 -24 38 -27 36 -12 -13 92 -144 142 -177
20 -14 16 -8 -14 19 -55 51 -43 55 16 6 24 -19 44 -33 44 -29 0 3 14 -2 30
-12 35 -20 40 -37 8 -28 -21 5 -21 5 2 -9 29 -17 53 -21 30 -5 -12 9 -12 10 3
5 10 -3 21 -6 23 -6 3 0 2 -5 -2 -12 -5 -7 -3 -8 6 -3 6 4 31 2 54 -5 45 -15
73 -32 35 -23 -13 3 -21 3 -18 -1 9 -10 143 -34 237 -42 70 -6 82 -4 82 9 0
14 -63 44 -82 39 -12 -3 -78 28 -78 37 0 5 8 12 17 15 11 5 13 10 6 17 -8 8
-20 6 -42 -6 -31 -16 -34 -15 -78 11 -61 35 -126 105 -158 168 -14 28 -23 42
-20 31 4 -11 9 -33 12 -48 6 -28 103 -135 153 -169 17 -12 20 -17 9 -17 -8 -1
-33 12 -55 29 -21 16 -51 30 -66 30 -27 0 -68 30 -68 49 0 5 -11 16 -25 25
-14 9 -25 22 -25 28 0 7 9 2 20 -10 23 -24 30 -27 30 -13 0 18 -45 61 -68 64
-12 2 -28 9 -35 17 -10 10 -9 11 3 4 34 -19 41 -11 14 19 -17 19 -20 24 -6 13
22 -19 22 -19 22 0 0 11 -10 28 -22 39 -20 17 -21 20 -5 23 30 6 16 35 -26 51
-20 8 -27 7 -27 -2 0 -24 -55 44 -56 71 -1 15 -5 42 -9 60 -5 25 -3 32 10 32
12 0 14 -7 9 -27 -4 -20 -3 -24 4 -14 8 11 11 11 16 0 3 -8 4 -5 1 7 -4 15 2
24 20 34 13 7 22 17 18 23 -3 6 -8 6 -12 0 -10 -16 -35 -21 -54 -11 -15 7 -16
12 -6 24 6 8 20 14 30 14 12 0 19 7 19 19 0 15 12 20 64 29 67 11 106 7 118
-12 5 -7 8 -4 8 7 0 21 29 22 56 2 24 -18 40 -19 25 -2 -6 8 -8 16 -6 19 3 3
-5 12 -19 21 -21 14 -25 14 -30 1 -5 -12 -26 -14 -128 -10 -68 2 -124 5 -124
5 -1 1 1 13 4 27 4 23 8 26 38 21 35 -6 74 1 74 13 0 4 -15 12 -32 18 -32 10
-32 10 -6 11 21 1 25 5 21 21 -7 25 15 27 24 3 4 -10 14 -24 22 -31 12 -10 13
-15 4 -18 -20 -9 -15 -24 7 -24 11 0 20 -4 20 -10 0 -5 5 -10 11 -10 5 0 7 5
4 10 -4 7 3 8 22 4 l28 -7 -25 29 c-13 16 -36 39 -50 51 -14 13 -25 28 -25 35
0 7 -10 13 -22 12 -18 0 -21 4 -18 32 2 25 0 31 -12 27 -8 -3 -19 0 -25 8 -7
10 -8 5 -4 -18z m-76 -173 c10 -17 10 -21 -4 -27 -16 -6 -37 15 -28 29 3 4 1
8 -4 8 -5 0 -14 -10 -20 -22 l-11 -23 0 22 c-1 36 47 45 67 13z m42 -74 c0 -3
-4 -8 -10 -11 -5 -3 -10 -1 -10 4 0 6 5 11 10 11 6 0 10 -2 10 -4z m27 -310
c4 -40 4 -40 -17 -21 -25 22 -28 68 -4 63 11 -2 18 -16 21 -42z m4 -66 c28
-16 23 -32 -6 -18 -14 6 -25 15 -25 20 0 11 7 10 31 -2z m239 -210 c0 -5 -7
-7 -15 -4 -8 4 -15 8 -15 10 0 2 7 4 15 4 8 0 15 -4 15 -10z m186 -50 c42 -16
23 -21 -21 -5 -22 8 -32 14 -23 15 9 0 29 -5 44 -10z"/>
<path d="M270 780 c-9 -6 -10 -10 -3 -10 6 0 15 5 18 10 8 12 4 12 -15 0z"/>
<path d="M405 679 c-4 -6 -5 -12 -2 -15 2 -3 7 2 10 11 7 17 1 20 -8 4z"/>
<path d="M426 675 c-3 -9 -6 -26 -5 -38 1 -16 4 -12 10 12 10 34 6 55 -5 26z"/>
<path d="M408 585 c-3 -14 -1 -25 3 -25 5 0 9 11 9 25 0 14 -2 25 -4 25 -2 0
-6 -11 -8 -25z"/>
<path d="M290 565 c0 -8 7 -15 15 -15 9 0 12 6 9 15 -4 8 -10 15 -15 15 -5 0
-9 -7 -9 -15z"/>
<path d="M350 561 c0 -12 5 -21 10 -21 6 0 10 6 10 14 0 8 -4 18 -10 21 -5 3
-10 -3 -10 -14z"/>
<path d="M235 543 c2 -16 4 -29 4 -30 2 -7 41 38 41 47 0 6 -11 10 -24 10 -21
0 -24 -4 -21 -27z"/>
<path d="M396 476 c1 -53 6 -80 19 -97 14 -19 16 -20 10 -4 -5 11 -10 55 -13
98 -2 42 -7 77 -11 77 -3 0 -6 -33 -5 -74z"/>
<path d="M261 504 c0 -11 3 -14 6 -6 3 7 2 16 -1 19 -3 4 -6 -2 -5 -13z"/>
</g>
</svg>
