<?xml version="1.0" standalone="no"?>
<!DOCTYPE svg PUBLIC "-//W3C//DTD SVG 20010904//EN"
 "http://www.w3.org/TR/2001/REC-SVG-20010904/DTD/svg10.dtd">
<svg version="1.0" xmlns="http://www.w3.org/2000/svg"
 width="100.000000pt" height="100.000000pt" viewBox="0 0 100.000000 100.000000"
 preserveAspectRatio="xMidYMid meet">

<g transform="translate(0.000000,100.000000) scale(0.100000,-0.100000)"
fill="#209237" stroke="none">
<path d="M280 870 l-205 -118 0 -252 0 -252 209 -119 c115 -65 213 -119 218
-119 5 0 106 55 224 121 l214 122 0 247 0 247 -214 121 c-118 67 -220 122
-228 121 -7 -1 -105 -54 -218 -119z m74 -130 c14 -5 83 -77 153 -160 l128
-150 3 143 c2 130 4 143 23 160 28 22 54 22 79 -3 19 -19 20 -33 20 -230 0
-197 -1 -211 -20 -230 -25 -25 -66 -26 -102 -2 -15 9 -80 80 -145 157 l-118
140 -5 -144 c-4 -126 -7 -144 -24 -157 -28 -20 -60 -17 -82 7 -17 19 -19 39
-19 231 0 208 0 210 24 229 26 21 48 24 85 9z"/>
</g>
</svg>
